<svg width="20" height="20" viewBox="0 0 20 20" fill="none" xmlns="http://www.w3.org/2000/svg">
<path d="M0 2.5C0 2.16848 0.131696 1.85054 0.366117 1.61612C0.600537 1.3817 0.918479 1.25 1.25 1.25H18.75C19.0815 1.25 19.3995 1.3817 19.6339 1.61612C19.8683 1.85054 20 2.16848 20 2.5V17.5C20 17.8315 19.8683 18.1495 19.6339 18.3839C19.3995 18.6183 19.0815 18.75 18.75 18.75H1.25C0.918479 18.75 0.600537 18.6183 0.366117 18.3839C0.131696 18.1495 0 17.8315 0 17.5V2.5ZM10.625 2.5V12.5H18.75V2.5H10.625ZM10.625 13.75V17.5H18.75V13.75H10.625ZM9.375 2.5H1.25V6.25H9.375V2.5ZM1.25 17.5H9.375V7.5H1.25V17.5Z" fill="#272848"/>
</svg>
