<svg width="20" height="20" viewBox="0 0 20 20" fill="none" xmlns="http://www.w3.org/2000/svg">
<g clip-path="url(#clip0_658_1135)">
<path d="M17.5 1.25C17.8315 1.25 18.1495 1.3817 18.3839 1.61612C18.6183 1.85054 18.75 2.16848 18.75 2.5V12.5C18.75 12.8315 18.6183 13.1495 18.3839 13.3839C18.1495 13.6183 17.8315 13.75 17.5 13.75H14.375C13.9869 13.75 13.6041 13.8404 13.257 14.0139C12.9098 14.1875 12.6079 14.4395 12.375 14.75L10 17.9163L7.625 14.75C7.39213 14.4395 7.09017 14.1875 6.74303 14.0139C6.3959 13.8404 6.01311 13.75 5.625 13.75H2.5C2.16848 13.75 1.85054 13.6183 1.61612 13.3839C1.3817 13.1495 1.25 12.8315 1.25 12.5V2.5C1.25 2.16848 1.3817 1.85054 1.61612 1.61612C1.85054 1.3817 2.16848 1.25 2.5 1.25H17.5ZM2.5 0C1.83696 0 1.20107 0.263392 0.732233 0.732233C0.263392 1.20107 0 1.83696 0 2.5L0 12.5C0 13.163 0.263392 13.7989 0.732233 14.2678C1.20107 14.7366 1.83696 15 2.5 15H5.625C5.81906 15 6.01045 15.0452 6.18402 15.132C6.35759 15.2188 6.50857 15.3448 6.625 15.5L9 18.6662C9.11643 18.8215 9.26741 18.9475 9.44098 19.0343C9.61455 19.1211 9.80594 19.1663 10 19.1663C10.1941 19.1663 10.3854 19.1211 10.559 19.0343C10.7326 18.9475 10.8836 18.8215 11 18.6662L13.375 15.5C13.4914 15.3448 13.6424 15.2188 13.816 15.132C13.9896 15.0452 14.1809 15 14.375 15H17.5C18.163 15 18.7989 14.7366 19.2678 14.2678C19.7366 13.7989 20 13.163 20 12.5V2.5C20 1.83696 19.7366 1.20107 19.2678 0.732233C18.7989 0.263392 18.163 0 17.5 0L2.5 0Z" fill="#272848"/>
<path d="M8.83253 5.95083C8.58903 5.57164 8.22905 5.28172 7.80667 5.12466C7.38429 4.96759 6.92234 4.95185 6.49026 5.07981C6.05817 5.20778 5.67929 5.47252 5.41056 5.83427C5.14183 6.19601 4.99777 6.6352 5.00003 7.08583C5.00025 7.459 5.10068 7.82526 5.29083 8.14635C5.48098 8.46744 5.75386 8.73158 6.08097 8.91116C6.40809 9.09075 6.77743 9.1792 7.1504 9.16727C7.52338 9.15533 7.88631 9.04346 8.20128 8.84333C8.03753 9.32958 7.73253 9.84833 7.23003 10.3683C7.13389 10.4678 7.08119 10.6014 7.08354 10.7397C7.08588 10.878 7.14307 11.0097 7.24253 11.1058C7.34198 11.202 7.47556 11.2547 7.61387 11.2523C7.75217 11.25 7.88389 11.1928 7.98003 11.0933C9.83753 9.16833 9.59628 7.07583 8.83253 5.95333V5.95083ZM13.8325 5.95083C13.589 5.57164 13.229 5.28172 12.8067 5.12466C12.3843 4.96759 11.9223 4.95185 11.4903 5.07981C11.0582 5.20778 10.6793 5.47252 10.4106 5.83427C10.1418 6.19601 9.99777 6.6352 10 7.08583C10.0003 7.459 10.1007 7.82526 10.2908 8.14635C10.481 8.46744 10.7539 8.73158 11.081 8.91116C11.4081 9.09075 11.7774 9.1792 12.1504 9.16727C12.5234 9.15533 12.8863 9.04346 13.2013 8.84333C13.0375 9.32958 12.7325 9.84833 12.23 10.3683C12.1339 10.4678 12.0812 10.6014 12.0835 10.7397C12.0859 10.878 12.1431 11.0097 12.2425 11.1058C12.342 11.202 12.4756 11.2547 12.6139 11.2523C12.7522 11.25 12.8839 11.1928 12.98 11.0933C14.8375 9.16833 14.5963 7.07583 13.8325 5.95333V5.95083Z" fill="#272848"/>
</g>
<defs>
<clipPath id="clip0_658_1135">
<rect width="20" height="20" fill="white"/>
</clipPath>
</defs>
</svg>
