<svg width="20" height="20" viewBox="0 0 20 20" fill="none" xmlns="http://www.w3.org/2000/svg">
<path d="M6.25 0H16.25C16.913 0 17.5489 0.263392 18.0178 0.732233C18.4866 1.20107 18.75 1.83696 18.75 2.5V15C18.75 15.663 18.4866 16.2989 18.0178 16.7678C17.5489 17.2366 16.913 17.5 16.25 17.5C16.25 18.163 15.9866 18.7989 15.5178 19.2678C15.0489 19.7366 14.413 20 13.75 20H3.75C3.08696 20 2.45107 19.7366 1.98223 19.2678C1.51339 18.7989 1.25 18.163 1.25 17.5H2.5C2.5 17.8315 2.6317 18.1495 2.86612 18.3839C3.10054 18.6183 3.41848 18.75 3.75 18.75H13.75C14.0815 18.75 14.3995 18.6183 14.6339 18.3839C14.8683 18.1495 15 17.8315 15 17.5V5C15 4.66848 14.8683 4.35054 14.6339 4.11612C14.3995 3.8817 14.0815 3.75 13.75 3.75H3.75C3.41848 3.75 3.10054 3.8817 2.86612 4.11612C2.6317 4.35054 2.5 4.66848 2.5 5H1.25C1.25 4.33696 1.51339 3.70107 1.98223 3.23223C2.45107 2.76339 3.08696 2.5 3.75 2.5H13.75C14.413 2.5 15.0489 2.76339 15.5178 3.23223C15.9866 3.70107 16.25 4.33696 16.25 5V16.25C16.5815 16.25 16.8995 16.1183 17.1339 15.8839C17.3683 15.6495 17.5 15.3315 17.5 15V2.5C17.5 2.16848 17.3683 1.85054 17.1339 1.61612C16.8995 1.3817 16.5815 1.25 16.25 1.25H6.25C5.91848 1.25 5.60054 1.3817 5.36612 1.61612C5.1317 1.85054 5 2.16848 5 2.5H3.75C3.75 1.83696 4.01339 1.20107 4.48223 0.732233C4.95107 0.263392 5.58696 0 6.25 0Z" fill="#272848"/>
<path d="M1.25 7.5V6.875C1.25 6.70924 1.31585 6.55027 1.43306 6.43306C1.55027 6.31585 1.70924 6.25 1.875 6.25C2.04076 6.25 2.19973 6.31585 2.31694 6.43306C2.43415 6.55027 2.5 6.70924 2.5 6.875V7.5H3.125C3.29076 7.5 3.44973 7.56585 3.56694 7.68306C3.68415 7.80027 3.75 7.95924 3.75 8.125C3.75 8.29076 3.68415 8.44973 3.56694 8.56694C3.44973 8.68415 3.29076 8.75 3.125 8.75H0.625C0.45924 8.75 0.300269 8.68415 0.183058 8.56694C0.065848 8.44973 0 8.29076 0 8.125C0 7.95924 0.065848 7.80027 0.183058 7.68306C0.300269 7.56585 0.45924 7.5 0.625 7.5H1.25ZM1.25 11.25V10.625C1.25 10.4592 1.31585 10.3003 1.43306 10.1831C1.55027 10.0658 1.70924 10 1.875 10C2.04076 10 2.19973 10.0658 2.31694 10.1831C2.43415 10.3003 2.5 10.4592 2.5 10.625V11.25H3.125C3.29076 11.25 3.44973 11.3158 3.56694 11.4331C3.68415 11.5503 3.75 11.7092 3.75 11.875C3.75 12.0408 3.68415 12.1997 3.56694 12.3169C3.44973 12.4342 3.29076 12.5 3.125 12.5H0.625C0.45924 12.5 0.300269 12.4342 0.183058 12.3169C0.065848 12.1997 0 12.0408 0 11.875C0 11.7092 0.065848 11.5503 0.183058 11.4331C0.300269 11.3158 0.45924 11.25 0.625 11.25H1.25ZM1.25 14.375V15H0.625C0.45924 15 0.300269 15.0658 0.183058 15.1831C0.065848 15.3003 0 15.4592 0 15.625C0 15.7908 0.065848 15.9497 0.183058 16.0669C0.300269 16.1842 0.45924 16.25 0.625 16.25H3.125C3.29076 16.25 3.44973 16.1842 3.56694 16.0669C3.68415 15.9497 3.75 15.7908 3.75 15.625C3.75 15.4592 3.68415 15.3003 3.56694 15.1831C3.44973 15.0658 3.29076 15 3.125 15H2.5V14.375C2.5 14.2092 2.43415 14.0503 2.31694 13.9331C2.19973 13.8158 2.04076 13.75 1.875 13.75C1.70924 13.75 1.55027 13.8158 1.43306 13.9331C1.31585 14.0503 1.25 14.2092 1.25 14.375Z" fill="#272848"/>
</svg>
